<svg width="32" height="32" viewBox="0 0 32 32" fill="none" xmlns="http://www.w3.org/2000/svg">
  <!-- Background circle -->
  <circle cx="16" cy="16" r="16" fill="#3b82f6"/>
  
  <!-- Chess board pattern -->
  <rect x="8" y="8" width="16" height="16" fill="#1e40af" rx="2"/>
  
  <!-- Chess board squares -->
  <rect x="8" y="8" width="4" height="4" fill="#fbbf24"/>
  <rect x="12" y="12" width="4" height="4" fill="#fbbf24"/>
  <rect x="16" y="8" width="4" height="4" fill="#fbbf24"/>
  <rect x="20" y="12" width="4" height="4" fill="#fbbf24"/>
  <rect x="8" y="16" width="4" height="4" fill="#fbbf24"/>
  <rect x="12" y="20" width="4" height="4" fill="#fbbf24"/>
  <rect x="16" y="16" width="4" height="4" fill="#fbbf24"/>
  <rect x="20" y="20" width="4" height="4" fill="#fbbf24"/>
  
  <!-- Queen piece in center - more visible -->
  <circle cx="16" cy="10" r="3" fill="#ffffff" stroke="#1e40af" stroke-width="1"/>
  <rect x="15" y="13" width="2" height="6" fill="#ffffff" stroke="#1e40af" stroke-width="1"/>
  <rect x="13" y="19" width="6" height="2" fill="#ffffff" stroke="#1e40af" stroke-width="1"/>
  <!-- Crown on queen -->
  <path d="M13 8L14 10L15 9L16 10L17 9L18 10L19 8L18 11L16 9L14 11L13 8Z" fill="#fbbf24"/>
</svg>

